name rise30.6535peak61.5555fall82.9339.mot
datacolumns 19
datarows 30
range 16.27160600000000 16.31993200000000
endheader
time	ground_force1_vx	ground_force1_vy	ground_force1_vz	ground_force1_px	ground_force1_py	ground_force1_pz	ground_force2_vx	ground_force2_vy	ground_force2_vz	ground_force2_px	ground_force2_py	ground_force2_pz	ground_torque1_x	ground_torque1_y	ground_torque1_z	ground_torque2_x	ground_torque2_y	ground_torque2_z	
16.27160600000000	11.71535100000000	707.40434400000004	44.86805800000000	0.25517700000000	0.00000000000000	0.12205900000000	0.00000000000000	0.00000000000000	0.00000000000000	0.00000000000000	0.00000000000000	0.00000000000000	0.00000000000000	20.98253600000000	0.00000000000000	0.00000000000000	0.00000000000000	0.00000000000000	
16.27326300000000	11.24505400000000	707.96330100000000	44.87777400000000	0.25447500000000	0.00000000000000	0.12203400000000	0.00000000000000	0.00000000000000	0.00000000000000	0.00000000000000	0.00000000000000	0.00000000000000	0.00000000000000	21.05363500000000	0.00000000000000	0.00000000000000	0.00000000000000	0.00000000000000	
16.27493500000000	10.76534900000000	708.54940199999999	44.89165700000000	0.25377100000000	0.00000000000000	0.12200800000000	0.00000000000000	0.00000000000000	0.00000000000000	0.00000000000000	0.00000000000000	0.00000000000000	0.00000000000000	21.12948100000000	0.00000000000000	0.00000000000000	0.00000000000000	0.00000000000000	
16.27661100000000	10.27617000000000	709.16314499999999	44.90961400000000	0.25306300000000	0.00000000000000	0.12198300000000	0.00000000000000	0.00000000000000	0.00000000000000	0.00000000000000	0.00000000000000	0.00000000000000	0.00000000000000	21.20994000000000	0.00000000000000	0.00000000000000	0.00000000000000	0.00000000000000	
16.27826600000000	9.77747600000000	709.80507599999999	44.93154600000000	0.25234900000000	0.00000000000000	0.12195700000000	0.00000000000000	0.00000000000000	0.00000000000000	0.00000000000000	0.00000000000000	0.00000000000000	0.00000000000000	21.29487300000000	0.00000000000000	0.00000000000000	0.00000000000000	0.00000000000000	
16.27993400000000	9.26924500000000	710.47578499999997	44.95735900000000	0.25162800000000	0.00000000000000	0.12193100000000	0.00000000000000	0.00000000000000	0.00000000000000	0.00000000000000	0.00000000000000	0.00000000000000	0.00000000000000	21.38413800000000	0.00000000000000	0.00000000000000	0.00000000000000	0.00000000000000	
16.28160000000000	8.75148100000000	711.17589299999997	44.98695700000000	0.25089800000000	0.00000000000000	0.12190600000000	0.00000000000000	0.00000000000000	0.00000000000000	0.00000000000000	0.00000000000000	0.00000000000000	0.00000000000000	21.47759000000000	0.00000000000000	0.00000000000000	0.00000000000000	0.00000000000000	
16.28326900000000	8.22420800000000	711.90604800000006	45.02024500000000	0.25015800000000	0.00000000000000	0.12188100000000	0.00000000000000	0.00000000000000	0.00000000000000	0.00000000000000	0.00000000000000	0.00000000000000	0.00000000000000	21.57507900000000	0.00000000000000	0.00000000000000	0.00000000000000	0.00000000000000	
16.28493300000000	7.68747400000000	712.66691900000001	45.05713100000000	0.24940700000000	0.00000000000000	0.12185700000000	0.00000000000000	0.00000000000000	0.00000000000000	0.00000000000000	0.00000000000000	0.00000000000000	0.00000000000000	21.67645400000000	0.00000000000000	0.00000000000000	0.00000000000000	0.00000000000000	
16.28659600000000	7.14134700000000	713.45918500000005	45.09752200000000	0.24864200000000	0.00000000000000	0.12183200000000	0.00000000000000	0.00000000000000	0.00000000000000	0.00000000000000	0.00000000000000	0.00000000000000	0.00000000000000	21.78156300000000	0.00000000000000	0.00000000000000	0.00000000000000	0.00000000000000	
16.28827000000000	6.58591700000000	714.28352900000004	45.14132900000000	0.24786400000000	0.00000000000000	0.12180900000000	0.00000000000000	0.00000000000000	0.00000000000000	0.00000000000000	0.00000000000000	0.00000000000000	0.00000000000000	21.89025000000000	0.00000000000000	0.00000000000000	0.00000000000000	0.00000000000000	
16.28993100000000	6.02129200000000	715.14063099999998	45.18846400000000	0.24707100000000	0.00000000000000	0.12178600000000	0.00000000000000	0.00000000000000	0.00000000000000	0.00000000000000	0.00000000000000	0.00000000000000	0.00000000000000	22.00236000000000	0.00000000000000	0.00000000000000	0.00000000000000	0.00000000000000	
16.29160100000000	5.44760400000000	716.03116000000000	45.23884400000000	0.24626300000000	0.00000000000000	0.12176300000000	0.00000000000000	0.00000000000000	0.00000000000000	0.00000000000000	0.00000000000000	0.00000000000000	0.00000000000000	22.11773600000000	0.00000000000000	0.00000000000000	0.00000000000000	0.00000000000000	
16.29326600000000	4.86500100000000	716.95576600000004	45.29238500000000	0.24543800000000	0.00000000000000	0.12174100000000	0.00000000000000	0.00000000000000	0.00000000000000	0.00000000000000	0.00000000000000	0.00000000000000	0.00000000000000	22.23622200000000	0.00000000000000	0.00000000000000	0.00000000000000	0.00000000000000	
16.29493000000000	4.27365100000000	717.91507300000001	45.34901000000000	0.24459700000000	0.00000000000000	0.12172000000000	0.00000000000000	0.00000000000000	0.00000000000000	0.00000000000000	0.00000000000000	0.00000000000000	0.00000000000000	22.35766100000000	0.00000000000000	0.00000000000000	0.00000000000000	0.00000000000000	
16.29660300000000	3.67374000000000	718.90967100000000	45.40864300000000	0.24373800000000	0.00000000000000	0.12170000000000	0.00000000000000	0.00000000000000	0.00000000000000	0.00000000000000	0.00000000000000	0.00000000000000	0.00000000000000	22.48189700000000	0.00000000000000	0.00000000000000	0.00000000000000	0.00000000000000	
16.29826300000000	3.06547200000000	719.94011000000000	45.47121300000000	0.24286100000000	0.00000000000000	0.12168100000000	0.00000000000000	0.00000000000000	0.00000000000000	0.00000000000000	0.00000000000000	0.00000000000000	0.00000000000000	22.60877300000000	0.00000000000000	0.00000000000000	0.00000000000000	0.00000000000000	
16.29993300000000	2.44906600000000	721.00689199999999	45.53665200000000	0.24196600000000	0.00000000000000	0.12166200000000	0.00000000000000	0.00000000000000	0.00000000000000	0.00000000000000	0.00000000000000	0.00000000000000	0.00000000000000	22.73813700000000	0.00000000000000	0.00000000000000	0.00000000000000	0.00000000000000	
16.30161200000000	1.82475800000000	722.11046399999998	45.60489700000000	0.24105200000000	0.00000000000000	0.12164400000000	0.00000000000000	0.00000000000000	0.00000000000000	0.00000000000000	0.00000000000000	0.00000000000000	0.00000000000000	22.86983300000000	0.00000000000000	0.00000000000000	0.00000000000000	0.00000000000000	
16.30326300000000	1.19279900000000	723.25121500000000	45.67588800000000	0.24012100000000	0.00000000000000	0.12162600000000	0.00000000000000	0.00000000000000	0.00000000000000	0.00000000000000	0.00000000000000	0.00000000000000	0.00000000000000	23.00371100000000	0.00000000000000	0.00000000000000	0.00000000000000	0.00000000000000	
16.30493100000000	0.55345400000000	724.42946600000005	45.74957200000000	0.23917200000000	0.00000000000000	0.12161000000000	0.00000000000000	0.00000000000000	0.00000000000000	0.00000000000000	0.00000000000000	0.00000000000000	0.00000000000000	23.13962000000000	0.00000000000000	0.00000000000000	0.00000000000000	0.00000000000000	
16.30661100000000	-0.09299700000000	725.64546499999994	45.82589700000000	0.23820500000000	0.00000000000000	0.12159400000000	0.00000000000000	0.00000000000000	0.00000000000000	0.00000000000000	0.00000000000000	0.00000000000000	0.00000000000000	23.27741100000000	0.00000000000000	0.00000000000000	0.00000000000000	0.00000000000000	
16.30826800000000	-0.74626400000000	726.89938500000005	45.90481700000000	0.23722100000000	0.00000000000000	0.12157900000000	0.00000000000000	0.00000000000000	0.00000000000000	0.00000000000000	0.00000000000000	0.00000000000000	0.00000000000000	23.41693800000000	0.00000000000000	0.00000000000000	0.00000000000000	0.00000000000000	
16.30993100000000	-1.40604200000000	728.19131300000004	45.98629100000000	0.23621900000000	0.00000000000000	0.12156400000000	0.00000000000000	0.00000000000000	0.00000000000000	0.00000000000000	0.00000000000000	0.00000000000000	0.00000000000000	23.55805400000000	0.00000000000000	0.00000000000000	0.00000000000000	0.00000000000000	
16.31159700000000	-2.07201700000000	729.52125300000000	46.07028200000000	0.23520200000000	0.00000000000000	0.12155000000000	0.00000000000000	0.00000000000000	0.00000000000000	0.00000000000000	0.00000000000000	0.00000000000000	0.00000000000000	23.70061800000000	0.00000000000000	0.00000000000000	0.00000000000000	0.00000000000000	
16.31326900000000	-2.74386500000000	730.88911499999995	46.15675600000000	0.23416900000000	0.00000000000000	0.12153700000000	0.00000000000000	0.00000000000000	0.00000000000000	0.00000000000000	0.00000000000000	0.00000000000000	0.00000000000000	23.84448800000000	0.00000000000000	0.00000000000000	0.00000000000000	0.00000000000000	
16.31493700000000	-3.42125100000000	732.29471799999999	46.24568700000000	0.23312200000000	0.00000000000000	0.12152400000000	0.00000000000000	0.00000000000000	0.00000000000000	0.00000000000000	0.00000000000000	0.00000000000000	0.00000000000000	23.98952400000000	0.00000000000000	0.00000000000000	0.00000000000000	0.00000000000000	
16.31660900000000	-4.10383300000000	733.73778000000004	46.33705000000000	0.23206000000000	0.00000000000000	0.12151200000000	0.00000000000000	0.00000000000000	0.00000000000000	0.00000000000000	0.00000000000000	0.00000000000000	0.00000000000000	24.13558800000000	0.00000000000000	0.00000000000000	0.00000000000000	0.00000000000000	
16.31827300000000	-4.79126000000000	735.21792000000005	46.43082400000000	0.23098600000000	0.00000000000000	0.12150000000000	0.00000000000000	0.00000000000000	0.00000000000000	0.00000000000000	0.00000000000000	0.00000000000000	0.00000000000000	24.28254600000000	0.00000000000000	0.00000000000000	0.00000000000000	0.00000000000000	
16.31993200000000	-5.48317700000000	736.73465599999997	46.52699300000000	0.22990000000000	0.00000000000000	0.12148900000000	0.00000000000000	0.00000000000000	0.00000000000000	0.00000000000000	0.00000000000000	0.00000000000000	0.00000000000000	24.43026200000000	0.00000000000000	0.00000000000000	0.00000000000000	0.00000000000000	
